<svg xmlns="http://www.w3.org/2000/svg" xmlns:xlink="http://www.w3.org/1999/xlink" zoomAndPan="magnify" preserveAspectRatio="xMidYMid meet" version="1.0" viewBox="3.15 143.64 368.7 110.06"><defs><g/><clipPath id="b00aff926d"><path d="M 77.953125 164.699219 L 133.453125 164.699219 L 133.453125 220.199219 L 77.953125 220.199219 Z M 77.953125 164.699219 " clip-rule="nonzero"/></clipPath></defs><g fill="#ffffff" fill-opacity="1"><g transform="translate(-1.411618, 220.049928)"><g><path d="M 32.578125 1.28125 C 27.128906 1.28125 22.316406 0.34375 18.140625 -1.53125 C 13.972656 -3.40625 10.6875 -6.09375 8.28125 -9.59375 C 5.875 -13.101562 4.632812 -17.367188 4.5625 -22.390625 L 18.890625 -22.390625 C 19.035156 -18.921875 20.289062 -16 22.65625 -13.625 C 25.03125 -11.257812 28.300781 -10.078125 32.46875 -10.078125 C 36.082031 -10.078125 38.945312 -10.941406 41.0625 -12.671875 C 43.1875 -14.410156 44.25 -16.734375 44.25 -19.640625 C 44.25 -22.679688 43.3125 -25.050781 41.4375 -26.75 C 39.5625 -28.445312 37.066406 -29.820312 33.953125 -30.875 C 30.847656 -31.9375 27.523438 -33.070312 23.984375 -34.28125 C 18.253906 -36.257812 13.882812 -38.804688 10.875 -41.921875 C 7.875 -45.035156 6.375 -49.175781 6.375 -54.34375 C 6.300781 -58.726562 7.34375 -62.492188 9.5 -65.640625 C 11.65625 -68.785156 14.609375 -71.222656 18.359375 -72.953125 C 22.109375 -74.691406 26.425781 -75.5625 31.3125 -75.5625 C 36.257812 -75.5625 40.625 -74.675781 44.40625 -72.90625 C 48.195312 -71.132812 51.171875 -68.65625 53.328125 -65.46875 C 55.484375 -62.289062 56.632812 -58.507812 56.78125 -54.125 L 42.234375 -54.125 C 42.160156 -56.738281 41.148438 -59.050781 39.203125 -61.0625 C 37.265625 -63.082031 34.5625 -64.09375 31.09375 -64.09375 C 28.125 -64.164062 25.628906 -63.441406 23.609375 -61.921875 C 21.597656 -60.398438 20.59375 -58.191406 20.59375 -55.296875 C 20.59375 -52.816406 21.367188 -50.847656 22.921875 -49.390625 C 24.472656 -47.941406 26.59375 -46.722656 29.28125 -45.734375 C 31.976562 -44.742188 35.054688 -43.6875 38.515625 -42.5625 C 42.203125 -41.28125 45.566406 -39.789062 48.609375 -38.09375 C 51.648438 -36.394531 54.085938 -34.148438 55.921875 -31.359375 C 57.765625 -28.566406 58.6875 -24.976562 58.6875 -20.59375 C 58.6875 -16.695312 57.695312 -13.085938 55.71875 -9.765625 C 53.738281 -6.441406 50.800781 -3.769531 46.90625 -1.75 C 43.019531 0.269531 38.242188 1.28125 32.578125 1.28125 Z M 32.578125 1.28125 "/></g></g></g><g fill="#ffffff" fill-opacity="1"><g transform="translate(54.621752, 220.049928)"><g><path d="M 6.890625 0 L 6.890625 -76.40625 L 20.484375 -76.40625 L 20.484375 0 Z M 6.890625 0 "/></g></g></g><g fill="#ffffff" fill-opacity="1"><g transform="translate(74.795408, 220.049928)"><g/></g></g><g fill="#ffffff" fill-opacity="1"><g transform="translate(92.729912, 220.049928)"><g/></g></g><g fill="#ffffff" fill-opacity="1"><g transform="translate(110.664416, 220.049928)"><g/></g></g><g fill="#ffffff" fill-opacity="1"><g transform="translate(128.607908, 220.049928)"><g><path d="M 30.359375 0 C 24.835938 0 20.410156 -1.34375 17.078125 -4.03125 C 13.753906 -6.71875 12.09375 -11.492188 12.09375 -18.359375 L 12.09375 -41.28125 L 3.078125 -41.28125 L 3.078125 -52.640625 L 12.09375 -52.640625 L 13.6875 -66.75 L 25.6875 -66.75 L 25.6875 -52.640625 L 39.90625 -52.640625 L 39.90625 -41.28125 L 25.6875 -41.28125 L 25.6875 -18.25 C 25.6875 -15.707031 26.234375 -13.957031 27.328125 -13 C 28.421875 -12.039062 30.3125 -11.5625 33 -11.5625 L 39.578125 -11.5625 L 39.578125 0 Z M 30.359375 0 "/></g></g></g><g fill="#a853ff" fill-opacity="1"><g transform="translate(165.967281, 220.049928)"><g><path d="M 32.578125 1.28125 C 27.128906 1.28125 22.316406 0.34375 18.140625 -1.53125 C 13.972656 -3.40625 10.6875 -6.09375 8.28125 -9.59375 C 5.875 -13.101562 4.632812 -17.367188 4.5625 -22.390625 L 18.890625 -22.390625 C 19.035156 -18.921875 20.289062 -16 22.65625 -13.625 C 25.03125 -11.257812 28.300781 -10.078125 32.46875 -10.078125 C 36.082031 -10.078125 38.945312 -10.941406 41.0625 -12.671875 C 43.1875 -14.410156 44.25 -16.734375 44.25 -19.640625 C 44.25 -22.679688 43.3125 -25.050781 41.4375 -26.75 C 39.5625 -28.445312 37.066406 -29.820312 33.953125 -30.875 C 30.847656 -31.9375 27.523438 -33.070312 23.984375 -34.28125 C 18.253906 -36.257812 13.882812 -38.804688 10.875 -41.921875 C 7.875 -45.035156 6.375 -49.175781 6.375 -54.34375 C 6.300781 -58.726562 7.34375 -62.492188 9.5 -65.640625 C 11.65625 -68.785156 14.609375 -71.222656 18.359375 -72.953125 C 22.109375 -74.691406 26.425781 -75.5625 31.3125 -75.5625 C 36.257812 -75.5625 40.625 -74.675781 44.40625 -72.90625 C 48.195312 -71.132812 51.171875 -68.65625 53.328125 -65.46875 C 55.484375 -62.289062 56.632812 -58.507812 56.78125 -54.125 L 42.234375 -54.125 C 42.160156 -56.738281 41.148438 -59.050781 39.203125 -61.0625 C 37.265625 -63.082031 34.5625 -64.09375 31.09375 -64.09375 C 28.125 -64.164062 25.628906 -63.441406 23.609375 -61.921875 C 21.597656 -60.398438 20.59375 -58.191406 20.59375 -55.296875 C 20.59375 -52.816406 21.367188 -50.847656 22.921875 -49.390625 C 24.472656 -47.941406 26.59375 -46.722656 29.28125 -45.734375 C 31.976562 -44.742188 35.054688 -43.6875 38.515625 -42.5625 C 42.203125 -41.28125 45.566406 -39.789062 48.609375 -38.09375 C 51.648438 -36.394531 54.085938 -34.148438 55.921875 -31.359375 C 57.765625 -28.566406 58.6875 -24.976562 58.6875 -20.59375 C 58.6875 -16.695312 57.695312 -13.085938 55.71875 -9.765625 C 53.738281 -6.441406 50.800781 -3.769531 46.90625 -1.75 C 43.019531 0.269531 38.242188 1.28125 32.578125 1.28125 Z M 32.578125 1.28125 "/></g></g></g><g fill="#a853ff" fill-opacity="1"><g transform="translate(222.000651, 220.049928)"><g><path d="M 26.640625 1.28125 C 20.054688 1.28125 14.976562 -0.769531 11.40625 -4.875 C 7.832031 -8.976562 6.046875 -14.992188 6.046875 -22.921875 L 6.046875 -52.640625 L 19.53125 -52.640625 L 19.53125 -24.203125 C 19.53125 -19.671875 20.445312 -16.203125 22.28125 -13.796875 C 24.125 -11.390625 27.023438 -10.1875 30.984375 -10.1875 C 34.734375 -10.1875 37.828125 -11.53125 40.265625 -14.21875 C 42.710938 -16.90625 43.9375 -20.65625 43.9375 -25.46875 L 43.9375 -52.640625 L 57.515625 -52.640625 L 57.515625 0 L 45.53125 0 L 44.46875 -8.921875 C 42.84375 -5.804688 40.488281 -3.328125 37.40625 -1.484375 C 34.332031 0.359375 30.742188 1.28125 26.640625 1.28125 Z M 26.640625 1.28125 "/></g></g></g><g fill="#a853ff" fill-opacity="1"><g transform="translate(279.2014, 220.049928)"><g><path d="M 6.890625 0 L 6.890625 -52.640625 L 19 -52.640625 L 20.265625 -42.765625 C 22.179688 -46.160156 24.78125 -48.863281 28.0625 -50.875 C 31.351562 -52.894531 35.226562 -53.90625 39.6875 -53.90625 L 39.6875 -39.578125 L 35.875 -39.578125 C 32.894531 -39.578125 30.238281 -39.117188 27.90625 -38.203125 C 25.570312 -37.285156 23.75 -35.691406 22.4375 -33.421875 C 21.132812 -31.160156 20.484375 -28.015625 20.484375 -23.984375 L 20.484375 0 Z M 6.890625 0 "/></g></g></g><g fill="#a853ff" fill-opacity="1"><g transform="translate(312.948456, 220.049928)"><g><path d="M 32.46875 1.28125 C 27.164062 1.28125 22.460938 0.148438 18.359375 -2.109375 C 14.253906 -4.378906 11.035156 -7.566406 8.703125 -11.671875 C 6.367188 -15.773438 5.203125 -20.515625 5.203125 -25.890625 C 5.203125 -31.335938 6.347656 -36.179688 8.640625 -40.421875 C 10.941406 -44.671875 14.125 -47.976562 18.1875 -50.34375 C 22.257812 -52.71875 27.054688 -53.90625 32.578125 -53.90625 C 37.742188 -53.90625 42.304688 -52.773438 46.265625 -50.515625 C 50.234375 -48.253906 53.332031 -45.160156 55.5625 -41.234375 C 57.789062 -37.304688 58.90625 -32.9375 58.90625 -28.125 C 58.90625 -27.34375 58.882812 -26.523438 58.84375 -25.671875 C 58.8125 -24.828125 58.757812 -23.945312 58.6875 -23.03125 L 18.671875 -23.03125 C 18.960938 -18.925781 20.394531 -15.707031 22.96875 -13.375 C 25.550781 -11.039062 28.6875 -9.875 32.375 -9.875 C 35.125 -9.875 37.4375 -10.488281 39.3125 -11.71875 C 41.1875 -12.957031 42.585938 -14.570312 43.515625 -16.5625 L 57.3125 -16.5625 C 56.320312 -13.226562 54.675781 -10.195312 52.375 -7.46875 C 50.070312 -4.75 47.238281 -2.609375 43.875 -1.046875 C 40.519531 0.503906 36.71875 1.28125 32.46875 1.28125 Z M 32.578125 -42.875 C 29.253906 -42.875 26.316406 -41.9375 23.765625 -40.0625 C 21.222656 -38.1875 19.597656 -35.335938 18.890625 -31.515625 L 45.109375 -31.515625 C 44.890625 -34.984375 43.613281 -37.742188 41.28125 -39.796875 C 38.945312 -41.847656 36.046875 -42.875 32.578125 -42.875 Z M 32.578125 -42.875 "/></g></g></g><g clip-path="url(#b00aff926d)"><path fill="#a853ff" d="M 105.636719 164.699219 C 90.332031 164.699219 77.953125 177.09375 77.953125 192.398438 C 77.953125 207.699219 90.332031 220.09375 105.636719 220.09375 C 120.9375 220.09375 133.347656 207.699219 133.347656 192.398438 C 133.347656 177.09375 120.9375 164.699219 105.636719 164.699219 Z M 105.648438 214.554688 C 93.40625 214.554688 83.492188 204.640625 83.492188 192.398438 C 83.492188 180.15625 93.40625 170.238281 105.648438 170.238281 C 117.890625 170.238281 127.808594 180.15625 127.808594 192.398438 C 127.808594 204.640625 117.890625 214.554688 105.648438 214.554688 Z M 105.648438 214.554688 " fill-opacity="0.9" fill-rule="nonzero"/></g><path fill="#a853ff" d="M 107.035156 178.550781 L 102.878906 178.550781 L 102.878906 195.167969 L 117.40625 203.890625 L 119.5 200.484375 L 107.035156 193.089844 Z M 107.035156 178.550781 " fill-opacity="0.9" fill-rule="nonzero"/><g fill="#ffffff" fill-opacity="1"><g transform="translate(99.527342, 250.859691)"><g><path d="M 6.515625 -6.5625 C 6.484375 -7.144531 6.257812 -7.601562 5.84375 -7.9375 C 5.4375 -8.28125 4.894531 -8.453125 4.21875 -8.453125 C 3.53125 -8.453125 3.003906 -8.3125 2.640625 -8.03125 C 2.273438 -7.75 2.09375 -7.347656 2.09375 -6.828125 C 2.09375 -6.535156 2.171875 -6.289062 2.328125 -6.09375 C 2.492188 -5.894531 2.78125 -5.742188 3.1875 -5.640625 L 5.84375 -5.046875 C 6.5625 -4.890625 7.09375 -4.59375 7.4375 -4.15625 C 7.78125 -3.71875 7.953125 -3.1875 7.953125 -2.5625 C 7.953125 -1.644531 7.613281 -0.945312 6.9375 -0.46875 C 6.269531 0.0078125 5.394531 0.25 4.3125 0.25 C 3.488281 0.25 2.84375 0.144531 2.375 -0.0625 C 1.90625 -0.28125 1.484375 -0.617188 1.109375 -1.078125 C 0.742188 -1.535156 0.5625 -2.175781 0.5625 -3 L 1.734375 -3 C 1.734375 -2.3125 1.960938 -1.773438 2.421875 -1.390625 C 2.878906 -1.015625 3.503906 -0.828125 4.296875 -0.828125 C 5.066406 -0.828125 5.664062 -0.960938 6.09375 -1.234375 C 6.519531 -1.503906 6.734375 -1.890625 6.734375 -2.390625 C 6.734375 -2.847656 6.601562 -3.1875 6.34375 -3.40625 C 6.09375 -3.632812 5.597656 -3.832031 4.859375 -4 L 2.859375 -4.46875 C 2.191406 -4.625 1.691406 -4.890625 1.359375 -5.265625 C 1.035156 -5.640625 0.875 -6.101562 0.875 -6.65625 C 0.875 -7.488281 1.15625 -8.171875 1.71875 -8.703125 C 2.28125 -9.242188 3.0625 -9.515625 4.0625 -9.515625 C 5.195312 -9.515625 6.070312 -9.273438 6.6875 -8.796875 C 7.3125 -8.328125 7.644531 -7.582031 7.6875 -6.5625 Z M 6.515625 -6.5625 "/></g></g></g><g fill="#ffffff" fill-opacity="1"><g transform="translate(108.077864, 250.859691)"><g><path d="M 0.859375 -6.75 L 1.921875 -6.75 L 1.921875 -5.8125 L 1.953125 -5.8125 C 2.460938 -6.570312 3.144531 -6.953125 4 -6.953125 C 4.84375 -6.953125 5.441406 -6.585938 5.796875 -5.859375 C 6.117188 -6.253906 6.429688 -6.535156 6.734375 -6.703125 C 7.035156 -6.867188 7.410156 -6.953125 7.859375 -6.953125 C 8.441406 -6.953125 8.9375 -6.757812 9.34375 -6.375 C 9.75 -6 9.953125 -5.429688 9.953125 -4.671875 L 9.953125 0 L 8.8125 0 L 8.8125 -4.359375 C 8.8125 -4.890625 8.710938 -5.285156 8.515625 -5.546875 C 8.316406 -5.804688 8 -5.9375 7.5625 -5.9375 C 7.113281 -5.9375 6.734375 -5.753906 6.421875 -5.390625 C 6.117188 -5.023438 5.96875 -4.601562 5.96875 -4.125 L 5.96875 0 L 4.828125 0 L 4.828125 -4.671875 C 4.828125 -5.066406 4.738281 -5.375 4.5625 -5.59375 C 4.382812 -5.820312 4.117188 -5.9375 3.765625 -5.9375 C 3.222656 -5.9375 2.789062 -5.734375 2.46875 -5.328125 C 2.144531 -4.921875 1.984375 -4.375 1.984375 -3.6875 L 1.984375 0 L 0.859375 0 Z M 0.859375 -6.75 "/></g></g></g><g fill="#ffffff" fill-opacity="1"><g transform="translate(118.797544, 250.859691)"><g><path d="M 4.953125 -3.453125 C 4.867188 -3.359375 4.703125 -3.285156 4.453125 -3.234375 C 4.210938 -3.179688 3.753906 -3.109375 3.078125 -3.015625 C 2.585938 -2.960938 2.222656 -2.84375 1.984375 -2.65625 C 1.753906 -2.46875 1.640625 -2.222656 1.640625 -1.921875 C 1.640625 -1.554688 1.738281 -1.269531 1.9375 -1.0625 C 2.132812 -0.851562 2.453125 -0.75 2.890625 -0.75 C 3.429688 -0.75 3.910156 -0.898438 4.328125 -1.203125 C 4.742188 -1.515625 4.953125 -1.894531 4.953125 -2.34375 Z M 0.796875 -4.703125 C 0.828125 -5.460938 1.078125 -6.023438 1.546875 -6.390625 C 2.015625 -6.765625 2.695312 -6.953125 3.59375 -6.953125 C 4.300781 -6.953125 4.894531 -6.789062 5.375 -6.46875 C 5.863281 -6.144531 6.109375 -5.675781 6.109375 -5.0625 L 6.109375 -1.171875 C 6.109375 -0.910156 6.226562 -0.78125 6.46875 -0.78125 C 6.570312 -0.78125 6.695312 -0.796875 6.84375 -0.828125 L 6.84375 0 C 6.632812 0.0820312 6.421875 0.125 6.203125 0.125 C 5.816406 0.125 5.523438 0.0390625 5.328125 -0.125 C 5.140625 -0.289062 5.046875 -0.550781 5.046875 -0.90625 C 4.390625 -0.164062 3.570312 0.203125 2.59375 0.203125 C 1.957031 0.203125 1.445312 0.0195312 1.0625 -0.34375 C 0.675781 -0.707031 0.484375 -1.179688 0.484375 -1.765625 C 0.484375 -2.359375 0.648438 -2.835938 0.984375 -3.203125 C 1.316406 -3.566406 1.804688 -3.785156 2.453125 -3.859375 L 4.453125 -4.109375 C 4.816406 -4.160156 5 -4.425781 5 -4.90625 C 5 -5.257812 4.867188 -5.53125 4.609375 -5.71875 C 4.347656 -5.90625 3.945312 -6 3.40625 -6 C 2.9375 -6 2.570312 -5.894531 2.3125 -5.6875 C 2.0625 -5.476562 1.910156 -5.148438 1.859375 -4.703125 Z M 0.796875 -4.703125 "/></g></g></g><g fill="#ffffff" fill-opacity="1"><g transform="translate(125.89145, 250.859691)"><g><path d="M 1.984375 0 L 0.859375 0 L 0.859375 -6.75 L 1.921875 -6.75 L 1.921875 -5.640625 L 1.953125 -5.640625 C 2.441406 -6.515625 3.070312 -6.953125 3.84375 -6.953125 C 3.96875 -6.953125 4.066406 -6.941406 4.140625 -6.921875 L 4.140625 -5.734375 L 3.71875 -5.734375 C 3.207031 -5.734375 2.789062 -5.5625 2.46875 -5.21875 C 2.144531 -4.875 1.984375 -4.445312 1.984375 -3.9375 Z M 1.984375 0 "/></g></g></g><g fill="#ffffff" fill-opacity="1"><g transform="translate(130.29295, 250.859691)"><g><path d="M 2.21875 -5.8125 L 2.21875 -1.421875 C 2.21875 -1.242188 2.265625 -1.109375 2.359375 -1.015625 C 2.453125 -0.929688 2.625 -0.890625 2.875 -0.890625 L 3.3125 -0.890625 L 3.3125 0 C 2.894531 0.0625 2.609375 0.09375 2.453125 0.09375 C 1.972656 0.09375 1.625 -0.0195312 1.40625 -0.25 C 1.1875 -0.476562 1.078125 -0.847656 1.078125 -1.359375 L 1.078125 -5.8125 L 0.171875 -5.8125 L 0.171875 -6.75 L 1.078125 -6.75 L 1.078125 -8.640625 L 2.21875 -8.640625 L 2.21875 -6.75 L 3.3125 -6.75 L 3.3125 -5.8125 Z M 2.21875 -5.8125 "/></g></g></g><g fill="#ffffff" fill-opacity="1"><g transform="translate(133.868279, 250.859691)"><g><path d="M 5.484375 -3.921875 C 5.429688 -4.648438 5.238281 -5.164062 4.90625 -5.46875 C 4.582031 -5.78125 4.148438 -5.9375 3.609375 -5.9375 C 3.054688 -5.9375 2.609375 -5.738281 2.265625 -5.34375 C 1.929688 -4.957031 1.753906 -4.484375 1.734375 -3.921875 Z M 6.578125 -2.125 C 6.453125 -1.425781 6.109375 -0.847656 5.546875 -0.390625 C 5.054688 0.00390625 4.410156 0.203125 3.609375 0.203125 C 2.660156 0.203125 1.90625 -0.101562 1.34375 -0.71875 C 0.789062 -1.332031 0.515625 -2.15625 0.515625 -3.1875 C 0.515625 -4.375 0.800781 -5.296875 1.375 -5.953125 C 1.945312 -6.617188 2.742188 -6.953125 3.765625 -6.953125 C 4.671875 -6.953125 5.378906 -6.609375 5.890625 -5.921875 C 6.410156 -5.242188 6.671875 -4.273438 6.671875 -3.015625 L 1.734375 -3.015625 C 1.734375 -2.304688 1.894531 -1.753906 2.21875 -1.359375 C 2.550781 -0.972656 3.046875 -0.78125 3.703125 -0.78125 C 4.160156 -0.78125 4.554688 -0.921875 4.890625 -1.203125 C 5.222656 -1.484375 5.40625 -1.789062 5.4375 -2.125 Z M 6.578125 -2.125 "/></g></g></g><g fill="#ffffff" fill-opacity="1"><g transform="translate(141.025242, 250.859691)"><g><path d="M 1.984375 0 L 0.859375 0 L 0.859375 -6.75 L 1.921875 -6.75 L 1.921875 -5.640625 L 1.953125 -5.640625 C 2.441406 -6.515625 3.070312 -6.953125 3.84375 -6.953125 C 3.96875 -6.953125 4.066406 -6.941406 4.140625 -6.921875 L 4.140625 -5.734375 L 3.71875 -5.734375 C 3.207031 -5.734375 2.789062 -5.5625 2.46875 -5.21875 C 2.144531 -4.875 1.984375 -4.445312 1.984375 -3.9375 Z M 1.984375 0 "/></g></g></g><g fill="#ffffff" fill-opacity="1"><g transform="translate(145.23114, 250.859691)"><g/></g></g><g fill="#a853ff" fill-opacity="1"><g transform="translate(148.394527, 250.859691)"><g><path d="M 5.609375 -3.40625 C 5.609375 -4.300781 5.445312 -4.945312 5.125 -5.34375 C 4.8125 -5.738281 4.359375 -5.9375 3.765625 -5.9375 C 3.160156 -5.925781 2.703125 -5.6875 2.390625 -5.21875 C 2.085938 -4.757812 1.9375 -4.097656 1.9375 -3.234375 C 1.9375 -2.347656 2.117188 -1.71875 2.484375 -1.34375 C 2.859375 -0.96875 3.289062 -0.78125 3.78125 -0.78125 C 4.34375 -0.78125 4.785156 -1.007812 5.109375 -1.46875 C 5.441406 -1.9375 5.609375 -2.582031 5.609375 -3.40625 Z M 0.859375 0 L 0.859375 -9.28125 L 1.984375 -9.28125 L 1.984375 -5.90625 L 2.015625 -5.90625 C 2.492188 -6.601562 3.144531 -6.953125 3.96875 -6.953125 C 4.8125 -6.953125 5.488281 -6.640625 6 -6.015625 C 6.519531 -5.390625 6.78125 -4.578125 6.78125 -3.578125 C 6.78125 -2.453125 6.519531 -1.539062 6 -0.84375 C 5.476562 -0.144531 4.75 0.203125 3.8125 0.203125 C 2.988281 0.203125 2.367188 -0.144531 1.953125 -0.84375 L 1.921875 -0.84375 L 1.921875 0 Z M 0.859375 0 "/></g></g></g><g fill="#a853ff" fill-opacity="1"><g transform="translate(155.690215, 250.859691)"><g><path d="M 1.640625 -3.390625 C 1.640625 -2.640625 1.804688 -2.019531 2.140625 -1.53125 C 2.484375 -1.039062 2.972656 -0.796875 3.609375 -0.796875 C 4.253906 -0.796875 4.742188 -1.050781 5.078125 -1.5625 C 5.410156 -2.070312 5.578125 -2.679688 5.578125 -3.390625 C 5.578125 -4.097656 5.410156 -4.703125 5.078125 -5.203125 C 4.742188 -5.703125 4.253906 -5.953125 3.609375 -5.953125 C 3.003906 -5.953125 2.523438 -5.71875 2.171875 -5.25 C 1.816406 -4.78125 1.640625 -4.160156 1.640625 -3.390625 Z M 0.484375 -3.390625 C 0.484375 -4.390625 0.757812 -5.234375 1.3125 -5.921875 C 1.875 -6.609375 2.640625 -6.953125 3.609375 -6.953125 C 4.585938 -6.953125 5.351562 -6.601562 5.90625 -5.90625 C 6.46875 -5.21875 6.75 -4.378906 6.75 -3.390625 C 6.75 -2.398438 6.472656 -1.550781 5.921875 -0.84375 C 5.367188 -0.144531 4.597656 0.203125 3.609375 0.203125 C 2.648438 0.203125 1.890625 -0.132812 1.328125 -0.8125 C 0.765625 -1.5 0.484375 -2.359375 0.484375 -3.390625 Z M 0.484375 -3.390625 "/></g></g></g><g fill="#a853ff" fill-opacity="1"><g transform="translate(162.910235, 250.859691)"><g><path d="M 1.640625 -3.390625 C 1.640625 -2.640625 1.804688 -2.019531 2.140625 -1.53125 C 2.484375 -1.039062 2.972656 -0.796875 3.609375 -0.796875 C 4.253906 -0.796875 4.742188 -1.050781 5.078125 -1.5625 C 5.410156 -2.070312 5.578125 -2.679688 5.578125 -3.390625 C 5.578125 -4.097656 5.410156 -4.703125 5.078125 -5.203125 C 4.742188 -5.703125 4.253906 -5.953125 3.609375 -5.953125 C 3.003906 -5.953125 2.523438 -5.71875 2.171875 -5.25 C 1.816406 -4.78125 1.640625 -4.160156 1.640625 -3.390625 Z M 0.484375 -3.390625 C 0.484375 -4.390625 0.757812 -5.234375 1.3125 -5.921875 C 1.875 -6.609375 2.640625 -6.953125 3.609375 -6.953125 C 4.585938 -6.953125 5.351562 -6.601562 5.90625 -5.90625 C 6.46875 -5.21875 6.75 -4.378906 6.75 -3.390625 C 6.75 -2.398438 6.472656 -1.550781 5.921875 -0.84375 C 5.367188 -0.144531 4.597656 0.203125 3.609375 0.203125 C 2.648438 0.203125 1.890625 -0.132812 1.328125 -0.8125 C 0.765625 -1.5 0.484375 -2.359375 0.484375 -3.390625 Z M 0.484375 -3.390625 "/></g></g></g><g fill="#a853ff" fill-opacity="1"><g transform="translate(170.130254, 250.859691)"><g><path d="M 6.46875 0 L 5 0 L 2.890625 -3.40625 L 1.953125 -2.5625 L 1.953125 0 L 0.859375 0 L 0.859375 -9.28125 L 1.953125 -9.28125 L 1.953125 -3.90625 L 4.859375 -6.75 L 6.296875 -6.75 L 3.71875 -4.234375 Z M 6.46875 0 "/></g></g></g><g fill="#a853ff" fill-opacity="1"><g transform="translate(176.587285, 250.859691)"><g><path d="M 0.859375 -7.984375 L 0.859375 -9.28125 L 1.984375 -9.28125 L 1.984375 -7.984375 Z M 1.984375 0 L 0.859375 0 L 0.859375 -6.75 L 1.984375 -6.75 Z M 1.984375 0 "/></g></g></g><g fill="#a853ff" fill-opacity="1"><g transform="translate(179.431153, 250.859691)"><g><path d="M 6.359375 0 L 5.21875 0 L 5.21875 -4.15625 C 5.21875 -4.789062 5.101562 -5.242188 4.875 -5.515625 C 4.65625 -5.796875 4.285156 -5.9375 3.765625 -5.9375 C 3.265625 -5.9375 2.84375 -5.738281 2.5 -5.34375 C 2.15625 -4.957031 1.984375 -4.40625 1.984375 -3.6875 L 1.984375 0 L 0.859375 0 L 0.859375 -6.75 L 1.921875 -6.75 L 1.921875 -5.8125 L 1.953125 -5.8125 C 2.484375 -6.570312 3.164062 -6.953125 4 -6.953125 C 4.757812 -6.953125 5.34375 -6.75 5.75 -6.34375 C 6.15625 -5.9375 6.359375 -5.351562 6.359375 -4.59375 Z M 6.359375 0 "/></g></g></g><g fill="#a853ff" fill-opacity="1"><g transform="translate(186.556588, 250.859691)"><g><path d="M 1.671875 -3.40625 C 1.671875 -2.570312 1.832031 -1.925781 2.15625 -1.46875 C 2.488281 -1.007812 2.9375 -0.78125 3.5 -0.78125 C 4.039062 -0.78125 4.484375 -0.976562 4.828125 -1.375 C 5.171875 -1.769531 5.34375 -2.332031 5.34375 -3.0625 C 5.34375 -4.007812 5.191406 -4.722656 4.890625 -5.203125 C 4.597656 -5.691406 4.144531 -5.9375 3.53125 -5.9375 C 2.90625 -5.9375 2.4375 -5.726562 2.125 -5.3125 C 1.820312 -4.90625 1.671875 -4.269531 1.671875 -3.40625 Z M 6.4375 -0.390625 C 6.4375 0.703125 6.175781 1.515625 5.65625 2.046875 C 5.132812 2.578125 4.347656 2.84375 3.296875 2.84375 C 2.535156 2.84375 1.929688 2.664062 1.484375 2.3125 C 1.035156 1.96875 0.78125 1.472656 0.71875 0.828125 L 1.84375 0.828125 C 1.90625 1.148438 2.054688 1.410156 2.296875 1.609375 C 2.546875 1.804688 2.90625 1.90625 3.375 1.90625 C 4.007812 1.90625 4.488281 1.734375 4.8125 1.390625 C 5.132812 1.046875 5.296875 0.492188 5.296875 -0.265625 L 5.296875 -0.75 L 5.28125 -0.75 C 4.851562 -0.113281 4.25 0.203125 3.46875 0.203125 C 2.507812 0.203125 1.773438 -0.148438 1.265625 -0.859375 C 0.753906 -1.578125 0.5 -2.484375 0.5 -3.578125 C 0.5 -4.578125 0.753906 -5.390625 1.265625 -6.015625 C 1.785156 -6.640625 2.46875 -6.953125 3.3125 -6.953125 C 4.164062 -6.953125 4.84375 -6.570312 5.34375 -5.8125 L 5.359375 -5.8125 L 5.359375 -6.75 L 6.4375 -6.75 Z M 6.4375 -0.390625 "/></g></g></g><g fill="#a853ff" fill-opacity="1"><g transform="translate(193.776607, 250.859691)"><g><path d="M 4.65625 -4.828125 C 4.644531 -5.234375 4.503906 -5.523438 4.234375 -5.703125 C 3.960938 -5.878906 3.570312 -5.96875 3.0625 -5.96875 C 2.6875 -5.96875 2.367188 -5.882812 2.109375 -5.71875 C 1.847656 -5.5625 1.71875 -5.328125 1.71875 -5.015625 C 1.71875 -4.773438 1.796875 -4.59375 1.953125 -4.46875 C 2.109375 -4.351562 2.441406 -4.234375 2.953125 -4.109375 L 4.078125 -3.828125 C 4.765625 -3.648438 5.253906 -3.425781 5.546875 -3.15625 C 5.835938 -2.894531 5.984375 -2.523438 5.984375 -2.046875 C 5.984375 -1.378906 5.738281 -0.835938 5.25 -0.421875 C 4.769531 -0.00390625 4.125 0.203125 3.3125 0.203125 C 2.363281 0.203125 1.644531 0.00390625 1.15625 -0.390625 C 0.664062 -0.785156 0.421875 -1.378906 0.421875 -2.171875 L 1.515625 -2.171875 C 1.535156 -1.703125 1.691406 -1.351562 1.984375 -1.125 C 2.273438 -0.894531 2.710938 -0.78125 3.296875 -0.78125 C 3.765625 -0.78125 4.140625 -0.875 4.421875 -1.0625 C 4.703125 -1.257812 4.84375 -1.523438 4.84375 -1.859375 C 4.84375 -2.097656 4.75 -2.289062 4.5625 -2.4375 C 4.382812 -2.582031 4.03125 -2.710938 3.5 -2.828125 L 2.1875 -3.15625 C 1.644531 -3.289062 1.25 -3.488281 1 -3.75 C 0.75 -4.019531 0.625 -4.367188 0.625 -4.796875 C 0.625 -5.460938 0.859375 -5.988281 1.328125 -6.375 C 1.804688 -6.757812 2.425781 -6.953125 3.1875 -6.953125 C 4.007812 -6.953125 4.632812 -6.753906 5.0625 -6.359375 C 5.5 -5.960938 5.734375 -5.453125 5.765625 -4.828125 Z M 4.65625 -4.828125 "/></g></g></g><g fill="#ffffff" fill-opacity="1"><g transform="translate(200.039054, 250.859691)"><g><path d="M 2.46875 0 L 1.125 0 L 1.125 -1.375 L 2.46875 -1.375 Z M 2.46875 0 "/></g></g></g><g fill="#ffffff" fill-opacity="1"><g transform="translate(202.850891, 250.859691)"><g/></g></g><g fill="#ffffff" fill-opacity="1"><g transform="translate(206.003738, 250.859691)"><g><path d="M 2.296875 0 L 1.046875 0 L 1.046875 -9.28125 L 7.46875 -9.28125 L 7.46875 -8.171875 L 2.296875 -8.171875 L 2.296875 -5.328125 L 6.84375 -5.328125 L 6.84375 -4.21875 L 2.296875 -4.21875 Z M 2.296875 0 "/></g></g></g><g fill="#ffffff" fill-opacity="1"><g transform="translate(213.349631, 250.859691)"><g><path d="M 5.484375 -3.921875 C 5.429688 -4.648438 5.238281 -5.164062 4.90625 -5.46875 C 4.582031 -5.78125 4.148438 -5.9375 3.609375 -5.9375 C 3.054688 -5.9375 2.609375 -5.738281 2.265625 -5.34375 C 1.929688 -4.957031 1.753906 -4.484375 1.734375 -3.921875 Z M 6.578125 -2.125 C 6.453125 -1.425781 6.109375 -0.847656 5.546875 -0.390625 C 5.054688 0.00390625 4.410156 0.203125 3.609375 0.203125 C 2.660156 0.203125 1.90625 -0.101562 1.34375 -0.71875 C 0.789062 -1.332031 0.515625 -2.15625 0.515625 -3.1875 C 0.515625 -4.375 0.800781 -5.296875 1.375 -5.953125 C 1.945312 -6.617188 2.742188 -6.953125 3.765625 -6.953125 C 4.671875 -6.953125 5.378906 -6.609375 5.890625 -5.921875 C 6.410156 -5.242188 6.671875 -4.273438 6.671875 -3.015625 L 1.734375 -3.015625 C 1.734375 -2.304688 1.894531 -1.753906 2.21875 -1.359375 C 2.550781 -0.972656 3.046875 -0.78125 3.703125 -0.78125 C 4.160156 -0.78125 4.554688 -0.921875 4.890625 -1.203125 C 5.222656 -1.484375 5.40625 -1.789062 5.4375 -2.125 Z M 6.578125 -2.125 "/></g></g></g><g fill="#ffffff" fill-opacity="1"><g transform="translate(220.310991, 250.859691)"><g><path d="M 3.3125 0 L 2.140625 0 L 0.203125 -6.75 L 1.421875 -6.75 L 2.71875 -1.4375 L 2.734375 -1.4375 L 4.046875 -6.75 L 5.328125 -6.75 L 6.640625 -1.4375 L 6.671875 -1.4375 L 8.03125 -6.75 L 9.15625 -6.75 L 7.21875 0 L 6.015625 0 L 4.65625 -5.234375 L 4.625 -5.234375 Z M 3.3125 0 "/></g></g></g><g fill="#ffffff" fill-opacity="1"><g transform="translate(229.466734, 250.859691)"><g><path d="M 5.484375 -3.921875 C 5.429688 -4.648438 5.238281 -5.164062 4.90625 -5.46875 C 4.582031 -5.78125 4.148438 -5.9375 3.609375 -5.9375 C 3.054688 -5.9375 2.609375 -5.738281 2.265625 -5.34375 C 1.929688 -4.957031 1.753906 -4.484375 1.734375 -3.921875 Z M 6.578125 -2.125 C 6.453125 -1.425781 6.109375 -0.847656 5.546875 -0.390625 C 5.054688 0.00390625 4.410156 0.203125 3.609375 0.203125 C 2.660156 0.203125 1.90625 -0.101562 1.34375 -0.71875 C 0.789062 -1.332031 0.515625 -2.15625 0.515625 -3.1875 C 0.515625 -4.375 0.800781 -5.296875 1.375 -5.953125 C 1.945312 -6.617188 2.742188 -6.953125 3.765625 -6.953125 C 4.671875 -6.953125 5.378906 -6.609375 5.890625 -5.921875 C 6.410156 -5.242188 6.671875 -4.273438 6.671875 -3.015625 L 1.734375 -3.015625 C 1.734375 -2.304688 1.894531 -1.753906 2.21875 -1.359375 C 2.550781 -0.972656 3.046875 -0.78125 3.703125 -0.78125 C 4.160156 -0.78125 4.554688 -0.921875 4.890625 -1.203125 C 5.222656 -1.484375 5.40625 -1.789062 5.4375 -2.125 Z M 6.578125 -2.125 "/></g></g></g><g fill="#ffffff" fill-opacity="1"><g transform="translate(236.623696, 250.859691)"><g><path d="M 1.984375 0 L 0.859375 0 L 0.859375 -6.75 L 1.921875 -6.75 L 1.921875 -5.640625 L 1.953125 -5.640625 C 2.441406 -6.515625 3.070312 -6.953125 3.84375 -6.953125 C 3.96875 -6.953125 4.066406 -6.941406 4.140625 -6.921875 L 4.140625 -5.734375 L 3.71875 -5.734375 C 3.207031 -5.734375 2.789062 -5.5625 2.46875 -5.21875 C 2.144531 -4.875 1.984375 -4.445312 1.984375 -3.9375 Z M 1.984375 0 "/></g></g></g><g fill="#ffffff" fill-opacity="1"><g transform="translate(240.829594, 250.859691)"><g/></g></g><g fill="#a853ff" fill-opacity="1"><g transform="translate(243.984364, 250.859691)"><g><path d="M 1.671875 -3.40625 C 1.671875 -2.570312 1.832031 -1.925781 2.15625 -1.46875 C 2.488281 -1.007812 2.9375 -0.78125 3.5 -0.78125 C 4.039062 -0.78125 4.484375 -0.976562 4.828125 -1.375 C 5.171875 -1.769531 5.34375 -2.332031 5.34375 -3.0625 C 5.34375 -4.007812 5.191406 -4.722656 4.890625 -5.203125 C 4.597656 -5.691406 4.144531 -5.9375 3.53125 -5.9375 C 2.90625 -5.9375 2.4375 -5.726562 2.125 -5.3125 C 1.820312 -4.90625 1.671875 -4.269531 1.671875 -3.40625 Z M 6.4375 -0.390625 C 6.4375 0.703125 6.175781 1.515625 5.65625 2.046875 C 5.132812 2.578125 4.347656 2.84375 3.296875 2.84375 C 2.535156 2.84375 1.929688 2.664062 1.484375 2.3125 C 1.035156 1.96875 0.78125 1.472656 0.71875 0.828125 L 1.84375 0.828125 C 1.90625 1.148438 2.054688 1.410156 2.296875 1.609375 C 2.546875 1.804688 2.90625 1.90625 3.375 1.90625 C 4.007812 1.90625 4.488281 1.734375 4.8125 1.390625 C 5.132812 1.046875 5.296875 0.492188 5.296875 -0.265625 L 5.296875 -0.75 L 5.28125 -0.75 C 4.851562 -0.113281 4.25 0.203125 3.46875 0.203125 C 2.507812 0.203125 1.773438 -0.148438 1.265625 -0.859375 C 0.753906 -1.578125 0.5 -2.484375 0.5 -3.578125 C 0.5 -4.578125 0.753906 -5.390625 1.265625 -6.015625 C 1.785156 -6.640625 2.46875 -6.953125 3.3125 -6.953125 C 4.164062 -6.953125 4.84375 -6.570312 5.34375 -5.8125 L 5.359375 -5.8125 L 5.359375 -6.75 L 6.4375 -6.75 Z M 6.4375 -0.390625 "/></g></g></g><g fill="#a853ff" fill-opacity="1"><g transform="translate(251.204384, 250.859691)"><g><path d="M 4.953125 -3.453125 C 4.867188 -3.359375 4.703125 -3.285156 4.453125 -3.234375 C 4.210938 -3.179688 3.753906 -3.109375 3.078125 -3.015625 C 2.585938 -2.960938 2.222656 -2.84375 1.984375 -2.65625 C 1.753906 -2.46875 1.640625 -2.222656 1.640625 -1.921875 C 1.640625 -1.554688 1.738281 -1.269531 1.9375 -1.0625 C 2.132812 -0.851562 2.453125 -0.75 2.890625 -0.75 C 3.429688 -0.75 3.910156 -0.898438 4.328125 -1.203125 C 4.742188 -1.515625 4.953125 -1.894531 4.953125 -2.34375 Z M 0.796875 -4.703125 C 0.828125 -5.460938 1.078125 -6.023438 1.546875 -6.390625 C 2.015625 -6.765625 2.695312 -6.953125 3.59375 -6.953125 C 4.300781 -6.953125 4.894531 -6.789062 5.375 -6.46875 C 5.863281 -6.144531 6.109375 -5.675781 6.109375 -5.0625 L 6.109375 -1.171875 C 6.109375 -0.910156 6.226562 -0.78125 6.46875 -0.78125 C 6.570312 -0.78125 6.695312 -0.796875 6.84375 -0.828125 L 6.84375 0 C 6.632812 0.0820312 6.421875 0.125 6.203125 0.125 C 5.816406 0.125 5.523438 0.0390625 5.328125 -0.125 C 5.140625 -0.289062 5.046875 -0.550781 5.046875 -0.90625 C 4.390625 -0.164062 3.570312 0.203125 2.59375 0.203125 C 1.957031 0.203125 1.445312 0.0195312 1.0625 -0.34375 C 0.675781 -0.707031 0.484375 -1.179688 0.484375 -1.765625 C 0.484375 -2.359375 0.648438 -2.835938 0.984375 -3.203125 C 1.316406 -3.566406 1.804688 -3.785156 2.453125 -3.859375 L 4.453125 -4.109375 C 4.816406 -4.160156 5 -4.425781 5 -4.90625 C 5 -5.257812 4.867188 -5.53125 4.609375 -5.71875 C 4.347656 -5.90625 3.945312 -6 3.40625 -6 C 2.9375 -6 2.570312 -5.894531 2.3125 -5.6875 C 2.0625 -5.476562 1.910156 -5.148438 1.859375 -4.703125 Z M 0.796875 -4.703125 "/></g></g></g><g fill="#a853ff" fill-opacity="1"><g transform="translate(258.29829, 250.859691)"><g><path d="M 1.9375 -3.0625 C 1.9375 -2.332031 2.113281 -1.769531 2.46875 -1.375 C 2.820312 -0.976562 3.257812 -0.78125 3.78125 -0.78125 C 4.363281 -0.78125 4.8125 -1.015625 5.125 -1.484375 C 5.445312 -1.960938 5.609375 -2.601562 5.609375 -3.40625 C 5.609375 -4.28125 5.453125 -4.921875 5.140625 -5.328125 C 4.835938 -5.734375 4.378906 -5.9375 3.765625 -5.9375 C 3.160156 -5.9375 2.703125 -5.695312 2.390625 -5.21875 C 2.085938 -4.75 1.9375 -4.03125 1.9375 -3.0625 Z M 0.859375 -6.75 L 1.921875 -6.75 L 1.921875 -5.8125 L 1.953125 -5.8125 C 2.429688 -6.570312 3.101562 -6.953125 3.96875 -6.953125 C 4.84375 -6.953125 5.53125 -6.632812 6.03125 -6 C 6.53125 -5.363281 6.78125 -4.554688 6.78125 -3.578125 C 6.78125 -2.472656 6.523438 -1.566406 6.015625 -0.859375 C 5.503906 -0.148438 4.769531 0.203125 3.8125 0.203125 C 3.03125 0.203125 2.429688 -0.101562 2.015625 -0.71875 L 1.984375 -0.71875 L 1.984375 2.671875 L 0.859375 2.671875 Z M 0.859375 -6.75 "/></g></g></g><g fill="#a853ff" fill-opacity="1"><g transform="translate(265.593978, 250.859691)"><g><path d="M 4.65625 -4.828125 C 4.644531 -5.234375 4.503906 -5.523438 4.234375 -5.703125 C 3.960938 -5.878906 3.570312 -5.96875 3.0625 -5.96875 C 2.6875 -5.96875 2.367188 -5.882812 2.109375 -5.71875 C 1.847656 -5.5625 1.71875 -5.328125 1.71875 -5.015625 C 1.71875 -4.773438 1.796875 -4.59375 1.953125 -4.46875 C 2.109375 -4.351562 2.441406 -4.234375 2.953125 -4.109375 L 4.078125 -3.828125 C 4.765625 -3.648438 5.253906 -3.425781 5.546875 -3.15625 C 5.835938 -2.894531 5.984375 -2.523438 5.984375 -2.046875 C 5.984375 -1.378906 5.738281 -0.835938 5.25 -0.421875 C 4.769531 -0.00390625 4.125 0.203125 3.3125 0.203125 C 2.363281 0.203125 1.644531 0.00390625 1.15625 -0.390625 C 0.664062 -0.785156 0.421875 -1.378906 0.421875 -2.171875 L 1.515625 -2.171875 C 1.535156 -1.703125 1.691406 -1.351562 1.984375 -1.125 C 2.273438 -0.894531 2.710938 -0.78125 3.296875 -0.78125 C 3.765625 -0.78125 4.140625 -0.875 4.421875 -1.0625 C 4.703125 -1.257812 4.84375 -1.523438 4.84375 -1.859375 C 4.84375 -2.097656 4.75 -2.289062 4.5625 -2.4375 C 4.382812 -2.582031 4.03125 -2.710938 3.5 -2.828125 L 2.1875 -3.15625 C 1.644531 -3.289062 1.25 -3.488281 1 -3.75 C 0.75 -4.019531 0.625 -4.367188 0.625 -4.796875 C 0.625 -5.460938 0.859375 -5.988281 1.328125 -6.375 C 1.804688 -6.757812 2.425781 -6.953125 3.1875 -6.953125 C 4.007812 -6.953125 4.632812 -6.753906 5.0625 -6.359375 C 5.5 -5.960938 5.734375 -5.453125 5.765625 -4.828125 Z M 4.65625 -4.828125 "/></g></g></g><g fill="#ffffff" fill-opacity="1"><g transform="translate(271.863272, 250.859691)"><g><path d="M 2.46875 0 L 1.125 0 L 1.125 -1.375 L 2.46875 -1.375 Z M 2.46875 0 "/></g></g></g></svg>